<svg width="21" height="31" viewBox="0 0 21 31" fill="none" xmlns="http://www.w3.org/2000/svg">
<g clip-path="url(#clip0_1318_761)">
<path d="M10.5 25.7949C8.42319 25.7951 6.39297 25.1793 4.66612 24.0256C2.93926 22.8719 1.59333 21.2319 0.798549 19.3132C0.00376654 17.3945 -0.20417 15.2832 0.201038 13.2463C0.606245 11.2094 1.6064 9.33838 3.075 7.86992C4.29601 6.64904 5.79926 5.74811 7.45161 5.24694C9.10396 4.74577 10.8544 4.65983 12.5479 4.99672C14.2414 5.33361 15.8257 6.08294 17.1604 7.17834C18.4951 8.27375 19.5391 9.68141 20.1999 11.2766C20.8607 12.8719 21.1179 14.6055 20.9487 16.3238C20.7795 18.0422 20.1891 19.6923 19.2299 21.128C18.2707 22.5638 16.9722 23.7408 15.4494 24.5548C13.9267 25.3689 12.2267 25.7948 10.5 25.7949ZM8.23 10.8499L6.382 12.6949H11.554L6.243 18.0089L7.6 19.3629L12.911 14.0519V19.2249L14.759 17.3779V10.8499H8.23Z" fill="white"/>
</g>
<defs>
<clipPath id="clip0_1318_761">
<rect width="21" height="21" fill="white" transform="translate(0 4.79492)"/>
</clipPath>
</defs>
</svg>
