<svg width="20" height="19" viewBox="0 0 20 19" fill="none" xmlns="http://www.w3.org/2000/svg">
<path d="M8.16325 15.5041C7.98713 15.6655 7.74826 15.7562 7.49918 15.7562C7.25011 15.7562 7.01124 15.6655 6.83512 15.5041C6.659 15.3427 6.56006 15.1237 6.56006 14.8954C6.56006 14.6671 6.659 14.4481 6.83512 14.2866L12.4218 9.16692L6.83668 4.04576C6.74948 3.96582 6.6803 3.87092 6.63311 3.76648C6.58591 3.66203 6.56162 3.55009 6.56162 3.43704C6.56162 3.32399 6.58591 3.21204 6.63311 3.1076C6.6803 3.00315 6.74948 2.90825 6.83668 2.82831C6.92389 2.74837 7.02742 2.68496 7.14136 2.6417C7.2553 2.59844 7.37742 2.57617 7.50075 2.57617C7.62408 2.57617 7.7462 2.59844 7.86014 2.6417C7.97408 2.68496 8.0776 2.74837 8.16481 2.82831L14.4148 8.55748C14.5021 8.63741 14.5713 8.73236 14.6185 8.83687C14.6657 8.94138 14.6899 9.0534 14.6898 9.1665C14.6896 9.27961 14.6651 9.39157 14.6177 9.49598C14.5702 9.60039 14.5008 9.69518 14.4132 9.77493L8.16325 15.5041Z" fill="#23232D"/>
</svg>
