<svg width="33" height="33" viewBox="0 0 33 33" fill="none" xmlns="http://www.w3.org/2000/svg">
<g clip-path="url(#clip0_1318_2438)">
<g clip-path="url(#clip1_1318_2438)">
<path d="M8.62682 24.6166C6.50822 22.4932 5.31855 19.6159 5.31855 16.6163C5.31855 13.6167 6.50822 10.7398 8.62682 8.61634C10.7503 6.49774 13.6272 5.30807 16.6268 5.30807C19.6263 5.30807 22.5036 6.49774 24.6271 8.61634C26.7457 10.7398 27.9354 13.6171 27.9354 16.6167C27.9354 19.6162 26.7457 22.4932 24.6271 24.6166C22.5038 26.7355 19.6266 27.9254 16.627 27.9254C13.6273 27.9254 10.7501 26.7355 8.62682 24.6166ZM19.4613 15.3882L11.3675 15.3891V17.4523L19.4613 17.4515L15.52 21.3928L18.3358 21.3931L23.3083 16.4205L18.3346 11.4467L15.5199 11.4468L19.4613 15.3882Z" fill="#19183C"/>
</g>
</g>
<defs>
<clipPath id="clip0_1318_2438">
<rect width="32" height="32" fill="white" transform="translate(0.626953 0.617188)"/>
</clipPath>
<clipPath id="clip1_1318_2438">
<rect width="32" height="32" fill="white" transform="translate(0.626953 0.617188)"/>
</clipPath>
</defs>
</svg>
